<?xml version="1.0" encoding="utf-8"?><!-- Generator: Adobe Illustrator 16.0.0, SVG Export Plug-In . SVG Version: 6.00 Build 0) --><!DOCTYPE svg PUBLIC "-//W3C//DTD SVG 1.1//EN" "http://www.w3.org/Graphics/SVG/1.1/DTD/svg11.dtd"><svg version="1.1" id="Layer_1" xmlns="http://www.w3.org/2000/svg" xmlns:xlink="http://www.w3.org/1999/xlink" x="0px" y="0px" width="175px" height="175px" viewBox="5.5 797.5 175 175" enable-background="new 5.5 797.5 175 175" xml:space="preserve"><g id="outline" xmlns:inkscape="http://www.inkscape.org/namespaces/inkscape" xmlns:dc="http://purl.org/dc/elements/1.1/" xmlns:svg="http://www.w3.org/2000/svg" xmlns:sodipodi="http://sodipodi.sourceforge.net/DTD/sodipodi-0.dtd" xmlns:rdf="http://www.w3.org/1999/02/22-rdf-syntax-ns#" xmlns:cc="http://creativecommons.org/ns#" sodipodi:docname="twitter_bootstrap_logo.svg" inkscape:version="0.48.1 r9760"><g id="bg_1_"><linearGradient id="SVGID_1_" gradientUnits="userSpaceOnUse" x1="-64.9995" y1="1381.5" x2="-64.9995" y2="1206.5" gradientTransform="matrix(1 0 0 1 158 -409)"><stop offset="0" style="stop-color:#3BB1DC"/><stop offset="1" style="stop-color:#60F0FF"/></linearGradient><path fill="url(#SVGID_1_)" d="M151.333,799.216c7.292,0,14.183,2.861,19.388,8.062c5.204,5.205,8.062,12.097,8.062,19.389	v116.666c0,7.292-2.859,14.184-8.062,19.387c-5.205,5.205-12.097,8.064-19.388,8.064H34.667c-7.292,0-14.183-2.859-19.387-8.064	c-5.205-5.203-8.064-12.095-8.064-19.387V826.667c0-7.292,2.859-14.184,8.064-19.389c5.205-5.201,12.096-8.062,19.387-8.062	H151.333 M151.333,797.5H34.667C18.625,797.5,5.5,810.625,5.5,826.667v116.666c0,16.042,13.125,29.167,29.167,29.167h116.666	c16.042,0,29.167-13.125,29.167-29.167V826.667C180.5,810.625,167.375,797.5,151.333,797.5L151.333,797.5z"/></g><g id="B_2_" enable-background="new "><path fill="#3BB1DC" d="M53.053,835.533h49.612c9.149,0,16.499,2.085,22.019,6.289c5.52,4.203,8.293,10.521,8.293,19.015	c0,5.147-1.258,9.552-3.773,13.212c-2.518,3.659-6.119,6.521-10.811,8.521v0.283c6.293,1.346,11.066,4.318,14.297,8.923	c3.231,4.633,4.861,10.408,4.861,17.387c0,4.003-0.715,7.75-2.145,11.209c-1.43,3.487-3.661,6.493-6.721,9.006	c-3.06,2.517-6.947,4.521-11.724,6.006c-4.774,1.488-10.438,2.231-17.013,2.231H53.053V835.533L53.053,835.533z M70.925,878.281	h29.167c4.29,0,7.863-1.201,10.723-3.66c2.86-2.459,4.289-5.948,4.289-10.525c0-5.146-1.287-8.775-3.858-10.862	c-2.573-2.089-6.291-3.146-11.152-3.146H70.925V878.281L70.925,878.281z M70.925,923.033h31.597c5.435,0,9.666-1.404,12.642-4.234	c3.001-2.802,4.519-6.806,4.519-11.953c0-5.061-1.488-8.921-4.519-11.667c-3.031-2.744-7.207-4.06-12.642-4.06H70.925V923.033z"/></g></g></svg>