<svg xmlns="http://www.w3.org/2000/svg" version="1.1" x="0" y="0" width="97" height="97" viewBox="0 0 97 97" enable-background="new 0 0 97 97" xml:space="preserve"><path fill="#F05133" d="M92.7 44.4L52.6 4.3c-2.3-2.3-6.1-2.3-8.4 0l-8.3 8.3L46.5 23.2c2.5-0.8 5.3-0.3 7.2 1.7 2 2 2.5 4.8 1.7 7.3l10.2 10.2c2.5-0.8 5.3-0.3 7.3 1.7 2.8 2.8 2.8 7.2 0 10 -2.8 2.8-7.2 2.8-10 0 -2.1-2.1-2.6-5.1-1.5-7.7l-9.5-9.5v25c0.7 0.3 1.3 0.8 1.9 1.3 2.8 2.8 2.8 7.2 0 10 -2.7 2.7-7.2 2.7-10 0 -2.7-2.8-2.7-7.2 0-10 0.7-0.7 1.5-1.2 2.3-1.5V36.4c-0.8-0.3-1.6-0.9-2.3-1.5 -2.1-2.1-2.6-5.1-1.5-7.7L31.8 16.7 4.3 44.2c-2.3 2.3-2.3 6.1 0 8.4l40.1 40.1c2.3 2.3 6.1 2.3 8.4 0L92.7 52.8C95 50.5 95 46.7 92.7 44.4z"/></svg>