<svg xmlns="http://www.w3.org/2000/svg" viewBox="0 0 512 512"><title>HTML5 Logo</title><polygon fill="#E44D26" points="107.6 470.9 74.6 100.6 437.4 100.6 404.3 470.8 255.8 512"/><polygon fill="#F16529" points="256 480.5 376 447.2 404.3 130.9 256 130.9"/><polygon fill="#EBEBEB" points="256 268.2 195.9 268.2 191.8 221.7 256 221.7 256 176.3 255.8 176.3 142.1 176.3 143.2 188.5 154.4 313.6 256 313.6"/><polygon fill="#EBEBEB" points="256 386.2 255.8 386.2 205.2 372.6 202 336.3 177.4 336.3 156.4 336.3 162.8 407.6 255.8 433.5 256 433.4"/><path d="M108.4 0h23.1v22.8h21.1V0h23.1v69H152.6v-23.1h-21.1v23.1h-23.1V0zM206 22.9h-20.3V0h63.7v22.9h-20.3v46.1h-23.1V22.9zM259.5 0h24.1l14.8 24.3L313.2 0h24.1v69h-23V34.8l-15.9 24.5h-0.4l-15.9-24.5v34.2h-22.6V0zM348.7 0h23.1v46.2h32.5v22.8H348.7V0z"/><polygon fill="#FFFFFF" points="255.8 268.2 255.8 313.6 311.8 313.6 306.5 372.5 255.8 386.2 255.8 433.4 348.9 407.6 349.6 400 360.3 280.4 361.4 268.2 349.2 268.2"/><polygon fill="#FFFFFF" points="255.8 176.3 255.8 204.5 255.8 221.6 255.8 221.7 365.4 221.7 365.4 221.7 365.5 221.7 366.4 211.5 368.5 188.5 369.6 176.3"/></svg>