<svg xmlns="http://www.w3.org/2000/svg" xmlns:xlink="http://www.w3.org/1999/xlink" xmlns:sketch="http://www.bohemiancoding.com/sketch/ns" width="298" height="420" viewBox="0 0 298 420" version="1.1">
  <title>
    Slice 1
  </title>
  <description>
    Created with Sketch (http://www.bohemiancoding.com/sketch)
  </description>
  <g id="Page 1" stroke="none" stroke-width="1" fill="none" fill-rule="evenodd">
    <g id="Layer_1">
      <path d="M233.16 15.68L208.48 15.68 234.15 43.54 234.15 56.8 181.27 56.8 181.27 41.28 206.94 41.28 181.27 13.42 181.27 0.14 233.16 0.14 233.16 15.68 233.16 15.68ZM170.79 15.68L146.1 15.68 171.77 43.54 171.77 56.8 118.89 56.8 118.89 41.28 144.56 41.28 118.89 13.42 118.89 0.14 170.79 0.14 170.79 15.68 170.79 15.68ZM109.02 16.31L82.38 16.31 82.38 40.63 109.02 40.63 109.02 56.8 63.44 56.8 63.44 0.14 109.02 0.14 109.02 16.31 109.02 16.31ZM109.02 16.31" id="Shape" fill="#131313"/>
      <path d="M27.14 386.29L0.07 82.67 297.52 82.67 270.43 386.24 148.61 420.01 27.14 386.29ZM27.14 386.29" id="Shape" fill="#1572B6"/>
      <path d="M148.8 394.2L247.23 366.91 270.38 107.5 148.8 107.5 148.8 394.2ZM148.8 394.2" id="Shape" fill="#33A9DC"/>
      <g id="Group" transform="translate(55.000000, 142.000000)">
        <path d="M93.8 75.5L143.07 75.5 146.48 37.36 93.8 37.36 93.8 0.13 93.93 0.13 187.17 0.13 186.28 10.12 177.13 112.73 93.8 112.73 93.8 75.5ZM93.8 75.5" id="Shape" fill="#FFFFFF"/>
        <path d="M94.02 172.2L93.86 172.25 52.39 161.05 49.73 131.35 29.58 131.35 12.35 131.35 17.57 189.82 93.85 211 94.02 210.95 94.02 172.2ZM94.02 172.2" id="Shape" fill="#EBEBEB"/>
        <path d="M139.91 111.16L135.42 161.03 93.89 172.24 93.89 210.98 170.23 189.82 170.79 183.53 177.27 111.16 139.91 111.16ZM139.91 111.16" id="Shape" fill="#FFFFFF"/>
        <path d="M93.93 0.13L93.93 23.25 93.93 37.27 93.93 37.36 4.1 37.36 3.98 37.36 3.23 28.99 1.54 10.12 0.65 0.13 93.93 0.13ZM93.93 0.13" id="Shape" fill="#EBEBEB"/>
        <path d="M93.8 75.5L93.8 98.63 93.8 112.65 93.8 112.74 52.97 112.74 52.85 112.74 52.1 104.37 50.41 85.49 49.52 75.5 93.8 75.5ZM93.8 75.5" id="Shape" fill="#EBEBEB"/>
      </g>
    </g>
  </g>
</svg>
